<svg width="229" height="37" viewBox="0 0 229 37" fill="none" xmlns="http://www.w3.org/2000/svg">
<path d="M34.14 14.9482C34.14 20.601 30.0489 24.0225 23.2815 24.0225H21.6237V31.9067H13.1293V5.87384H23.2815C30.0489 5.87384 34.14 9.29535 34.14 14.9482ZM30.4226 14.9482C30.4226 11.2286 27.9299 9.10958 23.1713 9.10958H21.6237V20.7868H23.1713C27.932 20.7868 30.4226 18.6678 30.4226 14.9482Z" fill="url(#paint0_linear_81_478)"/>
<path d="M47.8627 12.0105V15.4687C47.5647 15.432 47.3055 15.432 47.0441 15.432C43.2143 15.432 40.834 17.7756 40.834 22.0892V31.9066H37.2634V12.1963H40.6849V15.5054C41.9486 13.2007 44.4045 12.0105 47.8627 12.0105Z" fill="url(#paint1_linear_81_478)"/>
<path d="M67.856 23.2406H51.8652C52.3124 26.6988 55.101 29.0057 59.0063 29.0057C61.3111 29.0057 63.2465 28.2238 64.6959 26.6253L66.6658 28.9301C64.8816 31.0124 62.1665 32.1291 58.894 32.1291C52.5348 32.1291 48.2947 27.9278 48.2947 22.0504C48.2947 16.1729 52.496 12.0105 58.1877 12.0105C63.8794 12.0105 67.9316 16.1016 67.9316 22.1627C67.9316 22.4608 67.8949 22.9057 67.8582 23.2406H67.856ZM51.8652 20.6744H64.5101C64.1386 17.3652 61.6459 15.0216 58.1877 15.0216C54.7294 15.0216 52.2368 17.3264 51.8652 20.6744Z" fill="url(#paint2_linear_81_478)"/>
<path d="M69.7677 29.8222L71.256 26.9969C72.93 28.187 75.6063 29.0424 78.1724 29.0424C81.4816 29.0424 82.8576 28.038 82.8576 26.364C82.8576 21.938 70.3984 25.77 70.3984 17.9225C70.3984 14.3887 73.5586 12.0105 78.6174 12.0105C81.1835 12.0105 84.0844 12.6801 85.7952 13.7947L84.2702 16.62C82.486 15.4666 80.5139 15.0583 78.5807 15.0583C75.4573 15.0583 73.9323 16.2118 73.9323 17.7735C73.9323 22.4219 86.4281 18.6289 86.4281 26.2905C86.4281 29.8611 83.1556 32.1291 77.9111 32.1291C74.6386 32.1291 71.4029 31.1247 69.7677 29.8244V29.8222Z" fill="url(#paint3_linear_81_478)"/>
<path d="M88.3982 29.8222L89.8865 26.9969C91.5605 28.187 94.2368 29.0424 96.8029 29.0424C100.112 29.0424 101.488 28.038 101.488 26.364C101.488 21.938 89.0289 25.77 89.0289 17.9225C89.0289 14.3887 92.1891 12.0105 97.2479 12.0105C99.814 12.0105 102.715 12.6801 104.426 13.7947L102.901 16.62C101.117 15.4666 99.1444 15.0583 97.2112 15.0583C94.0877 15.0583 92.5627 16.2118 92.5627 17.7735C92.5627 22.4219 105.059 18.6289 105.059 26.2905C105.059 29.8611 101.786 32.1291 96.5415 32.1291C93.2691 32.1291 90.0333 31.1247 88.3982 29.8244V29.8222Z" fill="url(#paint4_linear_81_478)"/>
<path d="M129.525 31.9045L123.909 23.908C123.389 23.9447 122.831 23.9815 122.272 23.9815H120.614V31.9023H112.12V5.86951H122.272C129.039 5.86951 133.13 9.29101 133.13 14.9438C133.13 18.9594 131.048 21.8603 127.404 23.1628L133.577 31.9023H129.523L129.525 31.9045ZM129.413 14.9482C129.413 11.2286 126.922 9.10957 122.162 9.10957H120.614V20.8235H122.162C126.922 20.8235 129.413 18.6656 129.413 14.9482Z" fill="url(#paint5_linear_81_478)"/>
<path d="M154.022 23.2406H138.031C138.479 26.6988 141.267 29.0057 145.173 29.0057C147.477 29.0057 149.413 28.2238 150.862 26.6253L152.832 28.9301C151.048 31.0124 148.333 32.1291 145.06 32.1291C138.701 32.1291 134.461 27.9278 134.461 22.0504C134.461 16.1729 138.662 12.0105 144.354 12.0105C150.046 12.0105 154.098 16.1016 154.098 22.1627C154.098 22.4608 154.061 22.9057 154.024 23.2406H154.022ZM138.031 20.6744H150.676C150.305 17.3652 147.812 15.0216 144.354 15.0216C140.896 15.0216 138.403 17.3264 138.031 20.6744Z" fill="url(#paint6_linear_81_478)"/>
<path d="M173.361 20.0048V31.9045H169.977V29.3016C168.786 31.0858 166.592 32.127 163.505 32.127C159.042 32.127 156.217 29.7466 156.217 26.3251C156.217 23.165 158.263 20.56 164.138 20.56H169.791V19.8536C169.791 16.8404 168.043 15.0929 164.509 15.0929C162.166 15.0929 159.788 15.9115 158.263 17.2119L156.774 14.5334C158.82 12.8961 161.758 12.004 164.918 12.004C170.309 12.004 173.359 14.6069 173.359 20.0005L173.361 20.0048ZM169.791 25.8801V23.1282H164.287C160.753 23.1282 159.749 24.5042 159.749 26.1782C159.749 28.1503 161.386 29.3772 164.099 29.3772C166.812 29.3772 168.896 28.1503 169.789 25.8823L169.791 25.8801Z" fill="url(#paint7_linear_81_478)"/>
<path d="M176.04 22.0504C176.04 16.1751 180.39 12.0105 186.453 12.0105C189.987 12.0105 192.925 13.4599 194.486 16.2118L191.771 17.9592C190.508 16.026 188.572 15.1339 186.417 15.1339C182.55 15.1339 179.649 17.8491 179.649 22.0504C179.649 26.2516 182.55 29.0035 186.417 29.0035C188.574 29.0035 190.508 28.1114 191.771 26.1782L194.486 27.889C192.925 30.6409 189.987 32.1291 186.453 32.1291C180.392 32.1291 176.04 27.9278 176.04 22.0504Z" fill="url(#paint8_linear_81_478)"/>
<path d="M215.869 20.5621V31.9045H212.298V20.9704C212.298 17.1017 210.365 15.2052 206.98 15.2052C203.187 15.2052 200.733 17.4732 200.733 21.7501V31.9023H197.163V4.3078H200.733V14.9806C202.222 13.084 204.675 12.0062 207.689 12.0062C212.486 12.0062 215.871 14.7581 215.871 20.5599L215.869 20.5621Z" fill="url(#paint9_linear_81_478)"/>
<defs>
<linearGradient id="paint0_linear_81_478" x1="24.307" y1="3.27151" x2="24.307" y2="35.7704" gradientUnits="userSpaceOnUse">
<stop stop-color="#0E87EA"/>
<stop offset="1" stop-color="#003B94"/>
</linearGradient>
<linearGradient id="paint1_linear_81_478" x1="42.9023" y1="10.0216" x2="42.9023" y2="34.8596" gradientUnits="userSpaceOnUse">
<stop stop-color="#0E87EA"/>
<stop offset="1" stop-color="#003B94"/>
</linearGradient>
<linearGradient id="paint2_linear_81_478" x1="58.7416" y1="9.99937" x2="58.7416" y2="35.1151" gradientUnits="userSpaceOnUse">
<stop stop-color="#0E87EA"/>
<stop offset="1" stop-color="#003B94"/>
</linearGradient>
<linearGradient id="paint3_linear_81_478" x1="78.6311" y1="9.99937" x2="78.6311" y2="35.1151" gradientUnits="userSpaceOnUse">
<stop stop-color="#0E87EA"/>
<stop offset="1" stop-color="#003B94"/>
</linearGradient>
<linearGradient id="paint4_linear_81_478" x1="97.2616" y1="9.99937" x2="97.2616" y2="35.1151" gradientUnits="userSpaceOnUse">
<stop stop-color="#0E87EA"/>
<stop offset="1" stop-color="#003B94"/>
</linearGradient>
<linearGradient id="paint5_linear_81_478" x1="123.535" y1="3.26696" x2="123.535" y2="35.7686" gradientUnits="userSpaceOnUse">
<stop stop-color="#0E87EA"/>
<stop offset="1" stop-color="#003B94"/>
</linearGradient>
<linearGradient id="paint6_linear_81_478" x1="144.908" y1="9.99937" x2="144.908" y2="35.1151" gradientUnits="userSpaceOnUse">
<stop stop-color="#0E87EA"/>
<stop offset="1" stop-color="#003B94"/>
</linearGradient>
<linearGradient id="paint7_linear_81_478" x1="165.338" y1="9.99247" x2="165.338" y2="35.1136" gradientUnits="userSpaceOnUse">
<stop stop-color="#0E87EA"/>
<stop offset="1" stop-color="#003B94"/>
</linearGradient>
<linearGradient id="paint8_linear_81_478" x1="185.853" y1="9.99937" x2="185.853" y2="35.1151" gradientUnits="userSpaceOnUse">
<stop stop-color="#0E87EA"/>
<stop offset="1" stop-color="#003B94"/>
</linearGradient>
<linearGradient id="paint9_linear_81_478" x1="207.115" y1="1.54914" x2="207.115" y2="36.0003" gradientUnits="userSpaceOnUse">
<stop stop-color="#0E87EA"/>
<stop offset="1" stop-color="#003B94"/>
</linearGradient>
</defs>
</svg>
